<?xml version="1.0" encoding="utf-8"?>
<!-- Generator: Adobe Illustrator 24.0.0, SVG Export Plug-In . SVG Version: 6.00 Build 0)  -->
<svg version="1.1" id="a829b389-c410-4f7b-96e4-605d098a680d"
	 xmlns="http://www.w3.org/2000/svg" xmlns:xlink="http://www.w3.org/1999/xlink" x="0px" y="0px" viewBox="0 0 907 672"
	 style="enable-background:new 0 0 907 672;" xml:space="preserve">
<style type="text/css">
	.st0{fill:#F6A31A;}
	.st1{fill:#FFCA83;}
	.st2{fill:#F9D9AA;}
	.st3{fill:#89888E;}
	.st4{opacity:0.1;enable-background:new    ;}
</style>
<title>Building</title>
<rect x="133.5" y="131.9" class="st0" width="641" height="503"/>
<rect x="133.5" y="131.9" class="st1" width="641" height="503"/>
<rect y="200.9" class="st0" width="907" height="437"/>
<rect x="189" y="79.9" class="st2" width="530" height="592"/>
<rect x="37" y="260" class="st2" width="112" height="72"/>
<rect x="37" y="382" class="st2" width="112" height="72"/>
<rect x="37" y="504" class="st2" width="112" height="72"/>
<rect x="257" y="137.9" class="st3" width="112" height="72"/>
<rect x="257" y="260" class="st3" width="112" height="72"/>
<rect x="257" y="382" class="st3" width="112" height="72"/>
<rect x="539" y="138" class="st3" width="112" height="72"/>
<rect x="539" y="259.9" class="st3" width="112" height="72"/>
<rect x="539" y="382" class="st3" width="112" height="72"/>
<rect x="750" y="260" class="st2" width="112" height="72"/>
<rect x="750" y="382" class="st2" width="112" height="72"/>
<rect x="750" y="504" class="st2" width="112" height="72"/>
<rect x="405" y="480" class="st3" width="98" height="192"/>
<rect x="257" y="137.9" class="st4" width="112" height="22"/>
<rect x="539" y="137.9" class="st4" width="112" height="22"/>
<rect x="539" y="260" class="st4" width="112" height="22"/>
<rect x="539" y="382" class="st4" width="112" height="22"/>
<rect x="257" y="260" class="st4" width="112" height="22"/>
<rect x="257" y="382" class="st4" width="112" height="22"/>
<rect x="37" y="260" class="st4" width="112" height="17"/>
<rect x="37" y="382" class="st4" width="112" height="17"/>
<rect x="37" y="504" class="st4" width="112" height="17"/>
<rect x="750" y="260" class="st4" width="112" height="17"/>
<rect x="750" y="382" class="st4" width="112" height="17"/>
<rect x="750" y="504" class="st4" width="112" height="17"/>
</svg>
