<?xml version="1.0" encoding="utf-8"?>
<!-- Generator: Adobe Illustrator 24.0.0, SVG Export Plug-In . SVG Version: 6.00 Build 0)  -->
<svg version="1.1" id="aeed419a-5a6b-43d7-93ce-9f8aaad142e0"
	 xmlns="http://www.w3.org/2000/svg" xmlns:xlink="http://www.w3.org/1999/xlink" x="0px" y="0px" viewBox="0 0 945 652.8"
	 style="enable-background:new 0 0 945 652.8;" xml:space="preserve">
<style type="text/css">
	.st0{fill:#FFFFFF;}
	.st1{fill:#F2F2F2;}
	.st2{fill:#3F3D56;}
	.st3{fill:#89888E;}
	.st4{opacity:0.1;enable-background:new    ;}
	.st5{fill:#F6A31A;}
	.st6{fill:#2F2E41;}
	.st7{opacity:0.2;fill:#F6A31A;enable-background:new    ;}
	.st8{opacity:0.5;fill:#F6A31A;enable-background:new    ;}
	.st9{fill:#9F616A;}
	.st10{fill:#555AA8;}
	.st11{fill:none;stroke:#F2F2F2;stroke-width:2;stroke-miterlimit:9.9998;}
	.st12{fill:none;stroke:#3F3D56;stroke-width:2;stroke-miterlimit:10;}
	.st13{fill:none;stroke:#F2F2F2;stroke-width:2;stroke-miterlimit:10;}
</style>
<title>camera</title>
<polygon class="st0" points="722.3,119.3 599.7,203.1 779.6,203.1 "/>
<polygon class="st0" points="789.1,212 588.5,212 527.3,253.8 817.7,253.8 "/>
<polygon class="st0" points="520,262.1 326.2,394.6 464.3,596.6 866,322.1 825,262.1 "/>
<ellipse class="st1" cx="540" cy="632.8" rx="405" ry="20"/>
<ellipse class="st1" cx="116.5" cy="595.8" rx="116.5" ry="15"/>
<ellipse class="st2" cx="320.2" cy="345.7" rx="13.8" ry="8"/>
<polygon class="st3" points="682.6,404.2 372.6,404.2 380.3,376.7 386.9,353 398,312.7 658,312.7 668.8,353 676.3,380.6 "/>
<polygon class="st4" points="676.3,380.6 380.3,380.6 380.3,376.7 386.9,353 668.8,353 "/>
<rect x="300" y="343.2" class="st5" width="40.3" height="31.2"/>
<rect x="271" y="358.4" class="st3" width="514" height="274.4"/>
<rect x="271" y="461.5" class="st5" width="514" height="68.2"/>
<circle class="st6" cx="528" cy="495.6" r="127.4"/>
<circle class="st2" cx="528" cy="495.6" r="118.3"/>
<circle class="st3" cx="528" cy="495.6" r="90"/>
<circle class="st7" cx="705.9" cy="377.3" r="8.7"/>
<circle class="st8" cx="732" cy="377.3" r="8.7"/>
<circle class="st5" cx="758.1" cy="377.3" r="8.7"/>
<rect x="497.1" y="319.2" class="st6" width="61" height="27.6"/>
<path class="st9" d="M52.8,237l5.3-5.3c0,0,13.6-23.7,0-21.9s-13.6,13.6-13.6,13.6V237H52.8z"/>
<path class="st9" d="M264.6,294.6l5.3-1.8c0,0,14.2-21.4,16-11.9s-7.1,22.5-7.1,22.5h-14.2L264.6,294.6z"/>
<rect x="82.1" y="22.6" transform="matrix(0.2432 -0.97 0.97 0.2432 12.5619 300.2639)" class="st3" width="233.1" height="239"/>
<rect x="132.7" y="9.9" transform="matrix(0.2432 -0.97 0.97 0.2432 45.7385 283.6711)" class="st7" width="143.9" height="205.3"/>
<ellipse class="st6" cx="137.2" cy="214.5" rx="23.9" ry="19.9"/>
<path class="st6" d="M100.3,375.2c0,0-8.9,24.3-10.7,86S86,561.5,93.7,566.8s19,4.2,19.6,3s3.6-78.3,3.6-78.3l15.4-57.5l17.2,39.1
	v68.2c0,0,13,11.9,18.4,0.6s8.9-68.8,8.9-68.8s6.5-97.9-4.7-109.7S100.3,375.2,100.3,375.2z"/>
<path class="st6" d="M102,566.8c0,0-6.5-5.9-11.9,1.8s-23.1,24.3-19,27.3s25.5,4.2,27.9,1.2c0,0,17.2-7.7,17.2-9.5
	s-2.4-21.4-4.7-20.8S102.6,572.2,102,566.8z"/>
<path class="st6" d="M157.8,537.8h11.5c0,0-3.2,8.3-0.2,8.3s30.3,22.5,19.6,24.9s-40.9-8.3-42.1-11.9s4.2-19.6,4.2-19.6l7.1,3.6
	v-5.3H157.8z"/>
<path class="st9" d="M124.6,229.9c0,0-1.2,20.2-7.1,21.9s19,20.2,19,20.2l17.2-22.5c0,0-6.5-11.3-4.2-19.6S124.6,229.9,124.6,229.9z
	"/>
<path class="st4" d="M124.6,229.9c0,0-1.2,20.2-7.1,21.9s19,20.2,19,20.2l17.2-22.5c0,0-6.5-11.3-4.2-19.6S124.6,229.9,124.6,229.9z
	"/>
<path class="st10" d="M135.2,253c0,0-20.8-7.7-23.7-5.9s-30.8,14.2-31.4,16.6s3.6,36.8,3.6,36.8s7.1,3,7.7,15.4s16.6,32,11.3,45.1
	s-10.7,17.8-0.6,19.6s55.8-1.2,58.1-5.3s16-10.1,20.2-8.9s-2.4-61.7-2.4-61.7l3.6-8.9l11.9-32.6c0,0-17.8-20.2-35-18.4
	C158.4,244.7,139.4,247.1,135.2,253z"/>
<path class="st10" d="M89,265.5l-8.9-1.8c0,0-8.9,5.9-11.9,5.9s-3,2.4-3,2.4s-11.3-17.2-8.9-36.8c0,0-13.6-6.5-14.2-1.8
	s-5.3,58.7,4.7,62.3s44.5,4.2,44.5,4.2L89,265.5z"/>
<path class="st10" d="M185.1,261.9h8.3l21.9,21.9c0,0,5.3-1.2,7.1,2.4s13.6,3,13.6,3l31.4,3c0,0,4.2,13.6,1.2,16s-55.2,3-55.2,3
	s-4.7-2.4-7.7,0s-24.3-12.5-26.7-16.6S185.1,261.9,185.1,261.9z"/>
<circle class="st9" cx="138.2" cy="217.5" r="21.9"/>
<path class="st6" d="M124.6,204.7c0,0-3.8-9.8,1.7-13l1.5,4.3c0,0,13.7-8.3,17.3-6.4l-3.4,4.5c0,0,16,0,17.1,6.2l-5.6,0.2
	c0,0,6,3.9,6.2,10.3l-12,0.8l5.8,3.4c0,0-21.8,3-27-5.6L124.6,204.7z"/>
<path class="st6" d="M116.6,208.9c0,0,6.4,6.3,14.6,3.2s0-14.4,0-14.4l-5.5-2.7L116.6,208.9z"/>
<rect x="213" y="130.8" transform="matrix(0.8856 -0.4644 0.4644 0.8856 -40.2278 120.2529)" class="st11" width="22" height="22"/>
<rect x="154" y="112.8" transform="matrix(0.5 -0.866 0.866 0.5 -24.6828 204.8127)" class="st5" width="22" height="22"/>
<circle class="st12" cx="558" cy="286.8" r="11"/>
<circle class="st12" cx="524" cy="244.8" r="11"/>
<circle class="st12" cx="580" cy="212.8" r="11"/>
<circle class="st13" cx="208" cy="91.8" r="11"/>
</svg>
