<svg width = "215" height = "215" id="Layer_1" data-name="Layer 1" xmlns="http://www.w3.org/2000/svg" viewBox="0 0 215 215"><defs><style>.cls-1{fill:#f6a31a;}.cls-2{font-size:52.64px;font-family:BebasNeue-Regular, Bebas Neue;}.cls-2,.cls-5{fill:#fff;}.cls-3{letter-spacing:0em;}.cls-4{letter-spacing:-0.03em;}</style></defs><title>savour_white_text</title><circle class="cls-1" r = "107.5" cx="107.5" cy="107.5"/><text class="cls-2" transform="translate(18.41 125.43) scale(1.18 1)"><tspan class="cls-3">s</tspan><tspan class="cls-4" x="19.42" y="0">A</tspan><tspan x="39.05" y="0">v</tspan></text><path class="cls-5" d="M102.16,82.33c6,.56,7.06.52,10.14,2.5a21.72,21.72,0,0,1,6.63,7.09A20.57,20.57,0,0,1,122,98.61a18.27,18.27,0,0,1-4.74,16.66,33.23,33.23,0,0,1-4.73,3.93c-1.73,1.29-3.81,1.59-5.87,2a26.41,26.41,0,0,1-7.47.27,17.33,17.33,0,0,1-5-1.42c-4.64-2-8-5.47-10.65-9.57a10.46,10.46,0,0,1-1.21-4,26.11,26.11,0,0,1-.14-8,7.42,7.42,0,0,1,.45-1.74c1.71-4.11,3.92-7.89,7.6-10.57a18.78,18.78,0,0,1,7.3-3.32,26.11,26.11,0,0,1,4.59-.61Zm-.11,36.07c1,0,1.73,0,2.42,0,1.83-.14,3.69,0,5.38-.93a17.65,17.65,0,0,0,7.49-7.08c2.76-5,3.12-10.15.1-15.25-.66-1.12-1.34-2.23-2.1-3.28a16.27,16.27,0,0,0-4.85-4.75,12.08,12.08,0,0,0-9.55-1.6,28,28,0,0,0-9.07,4.23,19.68,19.68,0,0,0-6,6.41,6.87,6.87,0,0,0-1.08,3.3c0,2,0,4,.09,6A9.54,9.54,0,0,0,88,111.84C91.94,115.92,96.33,119,102.05,118.4Z" transform="translate(7.5 5.26)"/><path class="cls-5" d="M102.35,112.83A12.24,12.24,0,0,1,93,109.26c-.19-.17-.43-.37-.46-.58a1.21,1.21,0,0,1,.19-.92,1.11,1.11,0,0,1,.92-.06,2.24,2.24,0,0,1,.73.59,11.6,11.6,0,0,0,4.16,2.39c2.8,1.06,6-.26,6-4.35a4.31,4.31,0,0,1,1-3,3.64,3.64,0,0,1,4.4-.9,4.14,4.14,0,0,1,1.92,4.65,7.65,7.65,0,0,1-5,5A10.06,10.06,0,0,1,102.35,112.83Zm2.68-1.94a17.89,17.89,0,0,0,2.44-1,5.18,5.18,0,0,0,2.75-3.43,2.4,2.4,0,0,0-.89-2.44,2,2,0,0,0-2.3.18,2.26,2.26,0,0,0-.84,2,5,5,0,0,1-.09,1.4C105.8,108.69,105.42,109.7,105,110.89Z" transform="translate(7.5 5.26)"/><path class="cls-5" d="M98.36,98.91a3.09,3.09,0,0,1-2.86-.27c-.39-.21-.73-.5-1.11-.73A2.79,2.79,0,0,0,91,98a12.1,12.1,0,0,1-1.85,1.14c-.73.37-1.11.06-1-.73a2.42,2.42,0,0,1,1.17-1.77,7.7,7.7,0,0,1,6-.75,2.25,2.25,0,0,1,1,.62C97.11,97.24,97.67,98,98.36,98.91Z" transform="translate(7.5 5.26)"/><path class="cls-5" d="M115.9,98.91a3.32,3.32,0,0,1-3.08-.36,14.45,14.45,0,0,0-1.45-.89,2.59,2.59,0,0,0-2.7.24,14.35,14.35,0,0,1-2,1.25c-.72.37-1.1.07-1-.73A2.46,2.46,0,0,1,107,96.6a7.48,7.48,0,0,1,5.86-.71,4.53,4.53,0,0,1,1.59,1.24C114.9,97.63,115.32,98.22,115.9,98.91Z" transform="translate(7.5 5.26)"/><path class="cls-5" d="M102,82.16a25.51,25.51,0,0,1,4.72.47l-.25.35L102,82.53Z" transform="translate(7.5 5.26)"/><text class="cls-2" transform="translate(131.85 125.07) scale(1.18 1)">ur!</text></svg>