<svg id="Layer_1" data-name="Layer 1" xmlns="http://www.w3.org/2000/svg" viewBox="0 0 3894.44 824.96"><defs><style>.cls-1{fill:#fff;}</style></defs><title>SAVOUR_white_logo</title><path class="cls-1" d="M2494.2,1871.73c-10-50.07-36.15-93.39-62.6-136-35.27-56.84-77.9-107.51-134.77-144.08-62.66-40.29-84.16-39.41-206.18-50.78v0a9.47,9.47,0,0,1-1.19-.17l-.11,0c-.28,0-.57,0-.85-.09,0,0-.05,0-.08,0-.2,0-.41,0-.62-.06-7.19-.13-14.37-.5-21.5-1.33a31.5,31.5,0,0,1-3.75-.26l-.27,0c-21.93,2.23-43.6,6.21-65.12,10.54-54.4,10.94-103.69,35.14-148.29,67.52-74.94,54.42-119.88,131.28-154.66,214.93-4.62,11.13-7.3,23.36-9,35.35-7.88,54.55-6,109.3,2.77,163.36,4.57,28.14,9.64,59.13,24.73,82.11,54.69,83.33,122.18,154.93,216.34,194.53,32.29,13.58,67,25.53,101.49,28.8,50.23,4.78,101.15,4.41,151.77-5.33,42-8.07,84.33-14.17,119.3-40.37,33.34-25,68.31-49.32,96.17-79.79C2485.65,2114.3,2520,2000.92,2494.2,1871.73Zm-95.06,239.18c-35,63.82-88,110.14-152.08,144-34.39,18.17-72.33,16.06-109.33,18.92-14.08,1.09-28.31.18-49.24.18-116.34,11.7-205.65-50.45-285.87-133.4-35.62-36.83-60.94-78-62.53-130.59-1.23-40.42-1.71-80.87-1.84-121.31-.08-24.58,10.31-46.14,21.89-67.14,29.56-53.61,72.3-95,121.44-130.27,56-40.15,117.78-68.1,184.31-86,69.77-18.76,133.71-3,194.1,32.38,40.78,23.86,71.29,59,98.59,96.7,15.44,21.32,29.2,43.94,42.63,66.61C2462.62,1904.61,2455.4,2008.47,2399.14,2110.91Z" transform="translate(-58.06 -1532.37)"/><path class="cls-1" d="M2094.47,2160.86c-76.77,3-137.41-23.7-189.26-72.6-3.69-3.47-8.73-7.55-9.27-11.82-.77-6.22-.07-15.14,3.83-18.7,3.72-3.39,13-3.14,18.67-1.24s10.24,7.54,14.84,12c24.1,23.4,53.61,36.85,84.59,48.57,57,21.57,121.1-5.27,121.18-88.42,0-22.88,5.22-43.31,20.37-60.61,23-26.23,60.66-33.78,89.43-18.26,31.46,17,50.08,59.93,39,94.46-16.27,50.85-52.5,82.57-101.6,100.76C2155.22,2156.52,2123.44,2163.94,2094.47,2160.86Zm54.5-39.6c16.71-6.32,34.42-10.55,49.55-19.27,27.22-15.69,49.38-36.88,56-69.74,3.91-19.4-3.82-40.49-18-49.57-13.55-8.65-32.09-7.33-46.9,3.72-13.6,10.15-17.3,24.48-17,40.7.15,9.47.62,19.42-1.9,28.35C2164.69,2076.59,2157,2097.25,2149,2121.26Z" transform="translate(-58.06 -1532.37)"/><path class="cls-1" d="M2013.48,1877.85c-21.71,9.16-40.29,4.33-58.18-5.42-7.87-4.29-14.77-10.34-22.54-14.85-23.07-13.41-45.67-15.15-68.37,1.91a243.91,243.91,0,0,1-37.6,23.32c-14.82,7.37-22.44,1.21-19.6-15,2.65-15.19,10-28.07,23.76-35.83,38.73-21.92,79.9-27.15,122.76-15.35,7.72,2.12,16,6.69,21.22,12.59C1988,1843.83,1999.44,1859.88,2013.48,1877.85Z" transform="translate(-58.06 -1532.37)"/><path class="cls-1" d="M2370,1877.81c-24.22,8.92-43.75,4.13-62.52-7.34-9.86-6-19.16-13.24-29.59-18-18.77-8.51-37.16-7.6-54.75,4.87-13.08,9.27-26.6,18.18-40.86,25.42-14.76,7.49-22.44,1.26-19.62-15,2.77-16,11-29,25.39-36.9,37.72-20.59,78-26.67,119.16-14.46,12.21,3.62,22.52,15.57,32.24,25.19C2349.7,1851.81,2358.25,1863.76,2370,1877.81Z" transform="translate(-58.06 -1532.37)"/><path class="cls-1" d="M104.76,2305.29Q58.05,2253.23,58.06,2156v-45.76H176.54v54.92q0,77.8,65,77.8,31.88,0,48.4-18.88t16.53-61.22q0-50.31-22.79-88.65t-84.3-92.11q-77.49-68.62-108.25-124.13t-30.75-125.3q0-94.94,47.84-147t139-52.06q90,0,136.16,52.06t46.14,149.3v33.17H311v-41.18q0-41.19-16-60.07T248.32,1648q-62.67,0-62.65,76.65,0,43.48,23.34,81.24t84.89,91.53q78.62,68.65,108.24,124.7t29.62,131.58q0,98.4-48.42,151t-140.7,52.62Q151.45,2357.33,104.76,2305.29Z" transform="translate(-58.06 -1532.37)"/><path class="cls-1" d="M723.36,1541.63H893.12L1023,2342.51H897.68l-22.79-159v2.28H732.48l-22.8,156.75H593.48Zm136.71,535.44-55.82-395.86H802l-54.69,395.86Z" transform="translate(-58.06 -1532.37)"/><path class="cls-1" d="M1146.38,1540.78h126.47l82,621.25h2.27l82-621.25h115.08l-120.77,800.88H1267.15Z" transform="translate(-58.06 -1532.37)"/><path class="cls-1" d="M2689.88,2292.64Q2642,2240.57,2642,2143.32v-611h125.32v620.11q0,41.2,16.52,59.5t47.28,18.3q30.75,0,47.28-18.3t16.52-59.5V1532.37h120.76v611q0,97.28-47.86,149.32t-139,52Q2737.73,2344.68,2689.88,2292.64Z" transform="translate(-58.06 -1532.37)"/><path class="cls-1" d="M3234.05,1536.16h185.7q96.86,0,141.27,45.2t44.44,139v49.19q0,124.73-82,157.89v2.3q45.56,13.73,64.37,56.06t18.8,113.26v140.72q0,34.33,2.28,55.5a139.19,139.19,0,0,0,11.39,41.75H3492.68a183.41,183.41,0,0,1-9.13-36.61q-2.3-17.15-2.28-61.78V2092.19q0-54.89-17.66-76.64t-61-21.75h-43.3V2337H3234.05Zm170.89,343.23q37.59,0,56.39-19.45t18.8-65.22v-61.78q0-43.45-15.38-62.92t-48.42-19.46h-57v228.83Z" transform="translate(-58.06 -1532.37)"/><path class="cls-1" d="M3827.17,1868.38V1534.31H3952.5v334.07l-15.95,255.15h-93.42Zm2.28,345.52h120.77v121.28H3829.45Z" transform="translate(-58.06 -1532.37)"/></svg>